<?xml version="1.0" encoding="UTF-8"?>
<svg id="Layer_1" xmlns="http://www.w3.org/2000/svg" version="1.1" viewBox="0 0 1920 1080">
  <!-- Generator: Adobe Illustrator 30.0.0, SVG Export Plug-In . SVG Version: 2.1.1 Build 123)  -->
  <defs>
    <style>
      .st0 {
        fill: #ededed;
      }
    </style>
  </defs>
  <polygon class="st0" points="1003.6 523 916.4 523 872.9 598.4 916.4 673.9 1003.6 673.9 1047.1 598.4 1003.6 523"/>
  <polygon class="st0" points="1134.2 598.4 1047.1 598.4 1003.6 673.9 1047.1 749.3 1134.2 749.3 1177.8 673.9 1134.2 598.4"/>
  <polygon class="st0" points="1003.6 673.9 916.4 673.9 872.9 749.3 916.4 824.7 1003.6 824.7 1047.1 749.3 1003.6 673.9"/>
  <polygon class="st0" points="872.9 598.4 785.8 598.4 742.2 673.9 785.8 749.3 872.9 749.3 916.4 673.9 872.9 598.4"/>
  <polygon class="st0" points="872.9 447.5 785.8 447.5 742.2 523 785.8 598.4 872.9 598.4 916.4 523 872.9 447.5"/>
  <polygon class="st0" points="1003.7 372.2 916.6 372.2 873.1 447.7 916.6 523.1 1003.7 523.1 1047.3 447.7 1003.7 372.2"/>
  <polygon class="st0" points="1134.2 447.5 1047.1 447.5 1003.6 523 1047.1 598.4 1134.2 598.4 1177.8 523 1134.2 447.5"/>
  <polygon class="st0" points="1264.9 372.1 1177.8 372.1 1134.2 447.5 1177.8 523 1264.9 523 1308.4 447.5 1264.9 372.1"/>
  <polygon class="st0" points="1264.9 523 1177.8 523 1134.2 598.4 1177.8 673.9 1264.9 673.9 1308.4 598.4 1264.9 523"/>
  <polygon class="st0" points="1134.2 296.7 1047.1 296.7 1003.6 372.1 1047.1 447.5 1134.2 447.5 1177.8 372.1 1134.2 296.7"/>
  <polygon class="st0" points="1003.6 221.2 916.4 221.2 872.9 296.7 916.4 372.1 1003.6 372.1 1047.1 296.7 1003.6 221.2"/>
  <polygon class="st0" points="872.9 296.7 785.8 296.7 742.2 372.1 785.8 447.5 872.9 447.5 916.4 372.1 872.9 296.7"/>
  <polygon class="st0" points="742.2 372.1 655.1 372.1 611.6 447.5 655.1 523 742.2 523 785.8 447.5 742.2 372.1"/>
  <polygon class="st0" points="742.2 523 655.1 523 611.6 598.4 655.1 673.9 742.2 673.9 785.8 598.4 742.2 523"/>
  <polygon class="st0" points="742.2 673.9 655.1 673.9 611.6 749.3 655.1 824.7 742.2 824.7 785.8 749.3 742.2 673.9"/>
  <polygon class="st0" points="872.9 749.3 785.8 749.3 742.2 824.7 785.8 900.2 872.9 900.2 916.4 824.7 872.9 749.3"/>
  <polygon class="st0" points="1003.6 824.7 916.4 824.7 872.9 900.2 916.4 975.6 1003.6 975.6 1047.1 900.2 1003.6 824.7"/>
  <polygon class="st0" points="1134.2 749.3 1047.1 749.3 1003.6 824.7 1047.1 900.2 1134.2 900.2 1177.8 824.7 1134.2 749.3"/>
  <polygon class="st0" points="1264.9 673.9 1177.8 673.9 1134.2 749.3 1177.8 824.7 1264.9 824.7 1308.4 749.3 1264.9 673.9"/>
  <polygon class="st0" points="742.2 221.2 655.1 221.2 611.6 296.7 655.1 372.1 742.2 372.1 785.8 296.7 742.2 221.2"/>
  <polygon class="st0" points="1264.9 221.2 1177.8 221.2 1134.2 296.7 1177.8 372.1 1264.9 372.1 1308.4 296.7 1264.9 221.2"/>
  <polygon class="st0" points="742.2 824.7 655.1 824.7 611.6 900.2 655.1 975.6 742.2 975.6 785.8 900.2 742.2 824.7"/>
  <polygon class="st0" points="1264.9 824.7 1177.8 824.7 1134.2 900.2 1177.8 975.6 1264.9 975.6 1308.4 900.2 1264.9 824.7"/>
  <polygon class="st0" points="1395.5 749.3 1308.4 749.3 1264.9 824.7 1308.4 900.2 1395.5 900.2 1439.1 824.7 1395.5 749.3"/>
  <polygon class="st0" points="1395.5 598.4 1308.4 598.4 1264.9 673.9 1308.4 749.3 1395.5 749.3 1439.1 673.9 1395.5 598.4"/>
  <polygon class="st0" points="1395.5 447.5 1308.4 447.5 1264.9 523 1308.4 598.4 1395.5 598.4 1439.1 523 1395.5 447.5"/>
  <polygon class="st0" points="1395.5 296.7 1308.4 296.7 1264.9 372.1 1308.4 447.5 1395.5 447.5 1439.1 372.1 1395.5 296.7"/>
  <polygon class="st0" points="611.6 749.3 524.5 749.3 480.9 824.7 524.5 900.2 611.6 900.2 655.1 824.7 611.6 749.3"/>
  <polygon class="st0" points="611.6 598.4 524.5 598.4 480.9 673.9 524.5 749.3 611.6 749.3 655.1 673.9 611.6 598.4"/>
  <polygon class="st0" points="611.6 447.5 524.5 447.5 480.9 523 524.5 598.4 611.6 598.4 655.1 523 611.6 447.5"/>
  <polygon class="st0" points="611.6 296.7 524.5 296.7 480.9 372.1 524.5 447.5 611.6 447.5 655.1 372.1 611.6 296.7"/>
  <polygon class="st0" points="480.9 673.9 393.8 673.9 350.3 749.3 393.8 824.7 480.9 824.7 524.5 749.3 480.9 673.9"/>
  <polygon class="st0" points="480.9 523 393.8 523 350.3 598.4 393.8 673.9 480.9 673.9 524.5 598.4 480.9 523"/>
  <polygon class="st0" points="480.9 372.1 393.8 372.1 350.3 447.5 393.8 523 480.9 523 524.5 447.5 480.9 372.1"/>
  <polygon class="st0" points="1526.2 673.9 1439.1 673.9 1395.5 749.3 1439.1 824.7 1526.2 824.7 1569.7 749.3 1526.2 673.9"/>
  <polygon class="st0" points="1526.2 523 1439.1 523 1395.5 598.4 1439.1 673.9 1526.2 673.9 1569.7 598.4 1526.2 523"/>
  <polygon class="st0" points="1526.2 372.1 1439.1 372.1 1395.5 447.5 1439.1 523 1526.2 523 1569.7 447.5 1526.2 372.1"/>
</svg>