<?xml version="1.0" encoding="UTF-8"?>
<svg id="Layer_1" xmlns="http://www.w3.org/2000/svg" version="1.1" viewBox="0 0 1920 1080">
  <!-- Generator: Adobe Illustrator 30.0.0, SVG Export Plug-In . SVG Version: 2.1.1 Build 123)  -->
  <defs>
    <style>
      .st0 {
        font-size: 22.7px;
      }

      .st0, .st1, .st2 {
        font-family: Arial-Black, 'Arial Black';
        font-weight: 800;
      }

      .st0, .st2 {
        fill: #fff;
      }

      .st3 {
        fill: #ff0031;
      }

      .st1, .st2 {
        font-size: 44.4px;
      }

      .st1, .st4 {
        fill: #0d63c9;
      }

      .st5 {
        fill: #56ed51;
      }

      .st6 {
        fill: #6ecc00;
      }

      .st7 {
        fill: #5fa6ed;
      }

      .st8 {
        fill: #d1d1d1;
      }
    </style>
  </defs>
  <polygon class="st3" points="887.6 581.8 887.6 498.2 960 456.4 1032.4 498.2 1032.4 581.8 960 623.6 887.6 581.8"/>
  <polygon class="st6" points="963 451.2 963 367.5 1035.4 325.7 1107.9 367.5 1107.9 451.2 1035.4 493 963 451.2"/>
  <polygon class="st6" points="1038.4 581.8 1038.4 498.2 1110.9 456.4 1183.3 498.2 1183.3 581.8 1110.9 623.6 1038.4 581.8"/>
  <polygon class="st6" points="963 712.5 963 628.8 1035.4 587 1107.9 628.8 1107.9 712.5 1035.4 754.3 963 712.5"/>
  <polygon class="st6" points="812.1 712.5 812.1 628.8 884.6 587 957 628.8 957 712.5 884.6 754.3 812.1 712.5"/>
  <polygon class="st6" points="736.8 581.6 736.8 498 809.2 456.2 881.7 498 881.7 581.6 809.2 623.5 736.8 581.6"/>
  <polygon class="st6" points="812.1 451.2 812.1 367.5 884.6 325.7 957 367.5 957 451.2 884.6 493 812.1 451.2"/>
  <polygon class="st8" points="736.7 320.5 736.7 236.9 809.1 195 881.6 236.9 881.6 320.5 809.1 362.3 736.7 320.5"/>
  <polygon class="st8" points="887.6 320.5 887.6 236.9 960 195 1032.4 236.9 1032.4 320.5 960 362.3 887.6 320.5"/>
  <polygon class="st8" points="661.3 451.2 661.3 367.5 733.7 325.7 806.1 367.5 806.1 451.2 733.7 493 661.3 451.2"/>
  <polygon class="st8" points="585.8 581.8 585.8 498.2 658.3 456.4 730.7 498.2 730.7 581.8 658.3 623.6 585.8 581.8"/>
  <polygon class="st8" points="661.3 712.5 661.3 628.8 733.7 587 806.1 628.8 806.1 712.5 733.7 754.3 661.3 712.5"/>
  <polygon class="st4" points="510.4 451.2 510.4 367.5 582.8 325.7 655.3 367.5 655.3 451.2 582.8 493 510.4 451.2"/>
  <polygon class="st4" points="435 581.8 435 498.2 507.4 456.4 579.8 498.2 579.8 581.8 507.4 623.6 435 581.8"/>
  <polygon class="st4" points="510.4 712.5 510.4 628.8 582.8 587 655.3 628.8 655.3 712.5 582.8 754.3 510.4 712.5"/>
  <polygon class="st8" points="736.7 843.1 736.7 759.5 809.1 717.7 881.6 759.5 881.6 843.1 809.1 885 736.7 843.1"/>
  <polygon class="st8" points="887.6 843.1 887.6 759.5 960 717.7 1032.4 759.5 1032.4 843.1 960 885 887.6 843.1"/>
  <polygon class="st8" points="1038.4 843.1 1038.4 759.5 1110.9 717.7 1183.3 759.5 1183.3 843.1 1110.9 885 1038.4 843.1"/>
  <polygon class="st8" points="1113.9 712.5 1113.9 628.8 1186.3 587 1258.7 628.8 1258.7 712.5 1186.3 754.3 1113.9 712.5"/>
  <polygon class="st8" points="1189.3 581.8 1189.3 498.2 1261.7 456.4 1334.2 498.2 1334.2 581.8 1261.7 623.6 1189.3 581.8"/>
  <polygon class="st8" points="1113.9 451.2 1113.9 367.5 1186.3 325.7 1258.7 367.5 1258.7 451.2 1186.3 493 1113.9 451.2"/>
  <polygon class="st4" points="1264.7 712.5 1264.7 628.8 1337.2 587 1409.6 628.8 1409.6 712.5 1337.2 754.3 1264.7 712.5"/>
  <polygon class="st4" points="1340.2 581.8 1340.2 498.2 1412.6 456.4 1485 498.2 1485 581.8 1412.6 623.6 1340.2 581.8"/>
  <polygon class="st4" points="1264.7 451.2 1264.7 367.5 1337.2 325.7 1409.6 367.5 1409.6 451.2 1337.2 493 1264.7 451.2"/>
  <polygon class="st8" points="1038.4 320.5 1038.4 236.9 1110.9 195 1183.3 236.9 1183.3 320.5 1110.9 362.3 1038.4 320.5"/>
  <polygon class="st4" points="585.8 320.5 585.8 236.9 658.3 195 730.7 236.9 730.7 320.5 658.3 362.3 585.8 320.5"/>
  <polygon class="st4" points="1189.3 320.5 1189.3 236.9 1261.7 195 1334.2 236.9 1334.2 320.5 1261.7 362.3 1189.3 320.5"/>
  <polygon class="st4" points="1113.9 189.8 1113.9 106.2 1186.3 64.4 1258.7 106.2 1258.7 189.8 1186.3 231.7 1113.9 189.8"/>
  <polygon class="st4" points="963 189.8 963 106.2 1035.4 64.4 1107.9 106.2 1107.9 189.8 1035.4 231.7 963 189.8"/>
  <polygon class="st4" points="812.1 189.8 812.1 106.2 884.6 64.4 957 106.2 957 189.8 884.6 231.7 812.1 189.8"/>
  <polygon class="st4" points="661.3 189.8 661.3 106.2 733.7 64.4 806.1 106.2 806.1 189.8 733.7 231.7 661.3 189.8"/>
  <polygon class="st4" points="1189.3 843.1 1189.3 759.5 1261.7 717.7 1334.2 759.5 1334.2 843.1 1261.7 885 1189.3 843.1"/>
  <polygon class="st4" points="585.8 843.1 585.8 759.5 658.3 717.7 730.7 759.5 730.7 843.1 658.3 885 585.8 843.1"/>
  <polygon class="st4" points="661.3 973.8 661.3 890.2 733.7 848.3 806.1 890.2 806.1 973.8 733.7 1015.6 661.3 973.8"/>
  <polygon class="st4" points="812.1 973.8 812.1 890.2 884.6 848.3 957 890.2 957 973.8 884.6 1015.6 812.1 973.8"/>
  <polygon class="st4" points="963 973.8 963 890.2 1035.4 848.3 1107.9 890.2 1107.9 973.8 1035.4 1015.6 963 973.8"/>
  <polygon class="st4" points="1113.9 973.8 1113.9 890.2 1186.3 848.3 1258.7 890.2 1258.7 973.8 1186.3 1015.6 1113.9 973.8"/>
  <text/>
  <text class="st2" transform="translate(908.6 560.7)"><tspan x="0" y="0">5:00</tspan></text>
  <text class="st0" transform="translate(925.5 522.5)"><tspan x="0" y="0">TIME</tspan></text>
  <polygon class="st7" points="52.5 341.6 52.5 156.8 212.6 64.4 372.7 156.8 372.7 341.6 212.6 434 52.5 341.6"/>
  <polygon class="st5" points="1547.3 341.6 1547.3 156.8 1707.4 64.4 1867.5 156.8 1867.5 341.6 1707.4 434 1547.3 341.6"/>
  <text class="st1" transform="translate(130.9 493)"><tspan x="0" y="0">Team </tspan><tspan x="150.5" y="0">1</tspan></text>
  <text class="st1" transform="translate(1622.5 493)"><tspan x="0" y="0">Team </tspan><tspan x="150.5" y="0">2</tspan></text>
  <text class="st1" transform="translate(130.9 932)"><tspan x="0" y="0">SCORE</tspan></text>
  <text class="st1" transform="translate(1622.5 932)"><tspan x="0" y="0">SCORE</tspan></text>
  <text class="st1" transform="translate(1644.5 263.7)"><tspan x="0" y="0">ICON</tspan></text>
  <text class="st1" transform="translate(149.7 263.7)"><tspan x="0" y="0">ICON</tspan></text>
  <text class="st1" transform="translate(842.8 1066.4)"><tspan x="0" y="0">RESTART</tspan></text>
</svg>